<svg width="132" height="90" viewBox="0 0 132 90" fill="none" xmlns="http://www.w3.org/2000/svg">
<path d="M28.46 73L0.92 6.04H23.78L41.06 52.12L56 6.04H78.32L93.62 50.77L110.54 6.04H131.15L104.06 73H82.91L66.8 28.18L51.59 73H28.46Z" fill="white"/>
<path d="M28.46 73L19.2117 76.8037L21.7601 83H28.46V73ZM0.92 6.04V-3.96H-14.0057L-8.32832 9.84374L0.92 6.04ZM23.78 6.04L33.1433 2.52876L30.71 -3.96H23.78V6.04ZM41.06 52.12L31.6967 55.6312L41.7458 82.4288L50.5725 55.2041L41.06 52.12ZM56 6.04V-3.96H48.7297L46.4875 2.95586L56 6.04ZM78.32 6.04L87.7818 2.80357L85.4683 -3.96H78.32V6.04ZM93.62 50.77L84.1582 54.0064L93.1469 80.2851L102.973 54.308L93.62 50.77ZM110.54 6.04V-3.96H103.631L101.187 2.50197L110.54 6.04ZM131.15 6.04L140.42 9.7904L145.983 -3.96H131.15V6.04ZM104.06 73V83H110.802L113.33 76.7504L104.06 73ZM82.91 73L73.4994 76.3825L75.878 83H82.91V73ZM66.8 28.18L76.2106 24.7975L66.5287 -2.1386L57.3304 24.9664L66.8 28.18ZM51.59 73V83H58.7566L61.0596 76.2136L51.59 73ZM37.7083 69.1963L10.1683 2.23625L-8.32832 9.84374L19.2117 76.8037L37.7083 69.1963ZM0.92 16.04H23.78V-3.96H0.92V16.04ZM14.4167 9.55123L31.6967 55.6312L50.4233 48.6088L33.1433 2.52876L14.4167 9.55123ZM50.5725 55.2041L65.5125 9.12414L46.4875 2.95586L31.5475 49.0359L50.5725 55.2041ZM56 16.04H78.32V-3.96H56V16.04ZM68.8582 9.27643L84.1582 54.0064L103.082 47.5336L87.7818 2.80357L68.8582 9.27643ZM102.973 54.308L119.893 9.57803L101.187 2.50197L84.2668 47.232L102.973 54.308ZM110.54 16.04H131.15V-3.96H110.54V16.04ZM121.88 2.2896L94.7899 69.2496L113.33 76.7504L140.42 9.7904L121.88 2.2896ZM104.06 63H82.91V83H104.06V63ZM92.3206 69.6175L76.2106 24.7975L57.3894 31.5625L73.4994 76.3825L92.3206 69.6175ZM57.3304 24.9664L42.1204 69.7864L61.0596 76.2136L76.2696 31.3936L57.3304 24.9664ZM51.59 63H28.46V83H51.59V63Z" fill="black"/>
</svg>
