<?xml version="1.0" standalone="no"?>
<!DOCTYPE svg PUBLIC "-//W3C//DTD SVG 20010904//EN"
 "http://www.w3.org/TR/2001/REC-SVG-20010904/DTD/svg10.dtd">
<svg version="1.0" xmlns="http://www.w3.org/2000/svg"
 width="178.000000pt" height="178.000000pt" viewBox="0 0 178.000000 178.000000"
 preserveAspectRatio="xMidYMid meet">
<metadata>
Created by potrace 1.14, written by Peter Selinger 2001-2017
</metadata>
<g transform="translate(0.000000,178.000000) scale(0.100000,-0.100000)"
fill="#000000" stroke="none">
<path d="M32 1352 c-16 -2 -20 -7 -14 -15 4 -7 21 -43 37 -82 15 -38 34 -83
41 -100 7 -16 40 -97 74 -180 33 -82 65 -159 70 -170 29 -63 90 -219 90 -231
0 -8 5 -14 10 -14 6 0 10 -6 10 -14 0 -8 12 -42 26 -75 l27 -61 197 0 198 0
49 146 49 147 26 -69 c15 -38 39 -104 54 -147 l27 -77 187 0 187 0 186 463
c103 254 187 467 187 472 0 13 -427 12 -439 -1 -4 -5 -29 -67 -56 -139 -26
-71 -50 -133 -54 -137 -3 -4 -28 58 -56 137 -27 80 -54 145 -60 146 -5 1 -93
2 -194 2 l-184 2 -15 -34 c-7 -19 -16 -42 -18 -50 -16 -69 -73 -223 -78 -211
-3 8 -26 71 -51 139 -25 69 -50 131 -54 140 -8 13 -42 15 -223 15 -117 1 -223
0 -236 -2z"/>
</g>
</svg>
